<svg xmlns="http://www.w3.org/2000/svg" width="154" height="47" viewBox="0 0 154 47" fill="none"><path d="M54.2877 34.0828H59.3159V17.6749H54.2877V34.0828ZM56.8165 15.9694C58.5808 15.9694 59.7864 14.7638 59.7864 13.2642C59.7864 11.7351 58.5808 10.5295 56.8165 10.5295C55.0228 10.5295 53.8172 11.7351 53.8172 13.2642C53.8172 14.7638 55.0228 15.9694 56.8165 15.9694ZM77.9563 27.9372C77.9563 21.027 67.7528 22.6443 67.7528 19.0569C67.7528 17.7631 68.6643 17.1456 69.8699 17.175C71.2226 17.2044 72.1635 17.9983 72.2517 19.3216H77.6916C77.4858 15.3813 74.4571 13.1465 69.9582 13.1465C65.6357 13.1465 62.4305 15.3225 62.4305 19.2333C62.3717 26.5551 72.6928 24.4968 72.6928 28.3194C72.6928 29.525 71.7519 30.2601 70.2816 30.2601C68.8702 30.2601 67.8704 29.4956 67.7234 27.9078H62.3717C62.5187 32.0832 65.9885 34.2886 70.4286 34.2886C75.251 34.2886 77.9563 31.4069 77.9563 27.9372ZM81.0507 34.0828H86.0789V21.6739L90.7248 34.0828H94.7827L99.3993 21.7033V34.0828H104.427V13.4406H98.5171L92.7832 27.7313L86.9904 13.4406H81.0507V34.0828ZM122.128 34.0828H127.451L119.982 13.4406H114.16L106.691 34.0828H111.954L113.189 30.4366H120.893L122.128 34.0828ZM119.599 26.5551H114.512L117.041 18.9981L119.599 26.5551ZM129.724 34.0828H134.752V17.6749H129.724V34.0828ZM132.252 15.9694C134.017 15.9694 135.222 14.7638 135.222 13.2642C135.222 11.7351 134.017 10.5295 132.252 10.5295C130.459 10.5295 129.253 11.7351 129.253 13.2642C129.253 14.7638 130.459 15.9694 132.252 15.9694ZM138.396 13.4406V34.0828H150.011V30.2013H143.424V13.4406H138.396Z" fill="white"></path><ellipse cx="132.298" cy="13.1852" rx="3.65559" ry="3.13632" fill="url(#paint0_linear)"></ellipse><ellipse cx="22.9932" cy="22.298" rx="22.126" ry="21.652" fill="url(#paint1_linear)"></ellipse><path d="M29.8464 30.6499H34.0836V22.5244C34.0836 18.7857 31.8653 16.5923 28.4257 16.5923C26.4068 16.5923 24.662 17.714 23.7398 19.1845C22.7927 17.5146 21.0978 16.5923 19.0041 16.5923C17.1846 16.5923 15.7639 17.365 14.9414 18.4866L14.9414 16.7419H10.6792L10.6792 30.6499H14.9414V23.0977C14.9414 21.2782 15.9882 20.2812 17.6083 20.2812C19.2284 20.2812 20.2753 21.2782 20.2753 23.0977V30.6499L24.5125 30.6499V23.0977C24.5125 21.2782 25.5593 20.2812 27.1794 20.2812C28.7995 20.2812 29.8464 21.2782 29.8464 23.0977V30.6499Z" fill="white"></path><ellipse cx="12.3062" cy="12.0914" rx="2.6808" ry="2.62337" fill="white"></ellipse><defs><linearGradient id="paint0_linear" x1="130.767" y1="11.9683" x2="134.513" y2="16.2412" gradientUnits="userSpaceOnUse"><stop stop-color="#FF3528"></stop><stop offset="1" stop-color="#A20B0B"></stop></linearGradient><linearGradient id="paint1_linear" x1="13.7271" y1="13.8973" x2="39.8135" y2="39.9837" gradientUnits="userSpaceOnUse"><stop stop-color="#FF3528"></stop><stop offset="1" stop-color="#A20B0B"></stop></linearGradient></defs></svg>